<svg width="90" height="83" viewBox="0 0 90 83" fill="none" xmlns="http://www.w3.org/2000/svg">
  <g clip-path="url(#clip0_250_31)">
    <path d="M72.1485 42.4608C68.9935 35.3191 64.2547 19.8163 64.1383 18.5798C64.0849 18.0309 63.192 18.3291 62.7943 18.1591C62.5019 18.0251 62.2315 17.6572 62.0017 17.4665C61.8077 17.3044 61.0445 17.1865 60.9765 17.2285C61.4521 20.4225 62.273 24.4333 63.1519 28.6903C65.7087 41.1563 68.6147 55.2825 65.8394 62.2436C62.6479 70.2459 55.7045 74.2723 52.9331 75.7954C52.1683 76.2133 52.7559 77.2998 53.698 77.4266C56.9525 77.8569 66.6109 75.4649 72.4335 65.8996C76.0425 59.9671 75.3237 49.6118 72.1687 42.4701L72.1485 42.4608Z" fill="#398033"/>
    <path d="M63.7734 61.4554C67.1841 52.895 60.6257 29.2524 58.6527 17.3223C58.4897 16.3206 56.974 16.8335 56.8393 18.272C56.2189 25.1351 56.9315 36.6218 57.1885 42.8746C57.5422 51.3916 57.8198 58.1051 55.792 62.5302C53.1636 68.2658 49.2999 71.6667 46.0346 73.2561C44.8234 74.1159 47.2942 74.8457 48.2921 74.7176C52.1552 74.2192 59.9588 70.9773 63.7533 61.4462L63.7734 61.4554Z" fill="#8BC385"/>
    <path d="M53.4667 24.8862C53.4667 24.8862 52.4878 27.1819 51.687 28.8762C49.0729 34.4476 49.4077 41.3824 49.2508 45.238C49.0265 50.7579 48.7887 56.4668 46.7192 60.9827C44.6498 65.4986 41.3459 68.5828 39.1687 69.3414C38.4283 69.5997 38.4985 70.6443 39.0424 71.0277C40.0744 71.7567 42.0198 72.0628 43.3734 71.7439C46.0659 71.1117 50.7482 68.2932 53.8016 61.6303C56.8549 54.9674 54.2337 41.0449 55.0778 25.283C55.1487 24.0104 53.9757 23.8022 53.4675 24.911L53.4667 24.8862Z" fill="#FFD500"/>
    <path d="M47.6975 36.464C47.7928 35.91 47.1981 35.6375 46.8407 36.0714C42.0347 41.8213 33.8238 47.3892 30.9183 53.7296C27.7356 60.6747 29.3104 65.4092 33.1207 67.1553C36.9309 68.9014 41.5406 67.0132 44.7279 60.058C47.6335 53.7176 46.4854 43.8731 47.7076 36.4686L47.6975 36.464Z" fill="#FFAA7A"/>
    <path d="M26.3255 21.4863C33.7903 19.2234 48.6269 12.6912 49.6441 11.9621C50.0947 11.6441 50.4517 12.5151 50.8402 12.7054C51.1326 12.8393 51.5878 12.804 51.8822 12.8536C52.1317 12.8947 52.7193 13.3957 52.7319 13.4747C50.0021 15.1997 46.4281 17.1966 42.6298 19.3102C31.5181 25.5125 18.9209 32.5342 15.4602 39.1812C11.4825 46.8232 12.966 54.7114 13.6217 57.805C13.8045 58.6571 12.5979 58.9214 11.8868 58.2906C9.43602 56.1064 4.942 47.2289 8.38569 36.5735C10.523 29.9665 18.836 23.7501 26.3053 21.4771L26.3255 21.4863Z" fill="#398033"/>
    <path d="M17.4061 40.2315C21.6634 32.0591 43.8534 21.5907 54.1781 15.2961C55.0432 14.7656 55.6443 16.2485 54.6427 17.2898C49.8493 22.2405 40.6834 29.2003 35.7794 33.088C29.0972 38.3807 23.8308 42.5537 21.803 46.9788C19.1746 52.7144 19.1211 57.8613 20.0491 61.3724C20.1886 62.8512 18.0227 61.4561 17.4682 60.6166C15.3236 57.3651 12.6843 49.3376 17.4262 40.2407L17.4061 40.2315Z" fill="#8BC385"/>
    <path d="M51.8346 24.1626C51.8346 24.1626 50.7348 26.4029 49.9743 28.1157C47.461 33.7332 41.9896 38.0074 39.1716 40.6434C35.137 44.4173 30.968 48.3247 28.8985 52.8406C26.8291 57.3565 26.6501 61.8726 27.4969 64.017C27.7846 64.7466 26.9476 65.3753 26.3021 65.2137C25.0761 64.908 23.5741 63.6342 22.9319 62.4008C21.6529 59.9485 20.7307 54.5618 23.784 47.8989C26.9251 41.0444 39.0944 34.1315 50.4822 23.2014C51.3998 22.3168 52.3234 23.0694 51.8153 24.1782L51.8346 24.1626Z" fill="#FFD500"/>
  </g>
  <defs>
    <clipPath id="clip0_250_31">
      <rect width="70.5756" height="58.3787" fill="white" transform="translate(24.8899 0.398712) rotate(24.6201)"/>
    </clipPath>
  </defs>
</svg>